# xmcd CD database file
#
# Track frame offsets:
#	150
#	17832
#	40252
#	65115
#	86222
#	104965
#	122202
#	147220
#	166462
#
# Disc length: 2479 seconds
#
# Revision: 0
# Processed by: cddbd v1.5.2PL0 Copyright (c) Steve Scherf et al.
# Submitted via: CDex 1.51
#
DISCID=8909ad09
DTITLE=ROBERT-O - RETROLUTION
DYEAR=2006
DGENRE=Jazz
TTITLE0=LA-MAMBO
TTITLE1=CHANGES ARE GOOD
TTITLE2=RETROLUTION
TTITLE3=LISTEN
TTITLE4=CRYING
TTITLE5=MARIALUSA
TTITLE6=OVER YOU
TTITLE7=TONIGHT
TTITLE8=NOTHING LIKE IT
EXTD=YEAR: 2006
EXTT0=
EXTT1=
EXTT2=
EXTT3=
EXTT4=
EXTT5=
EXTT6=
EXTT7=
EXTT8=
PLAYORDER=
